<!DOCTYPE svg PUBLIC "-//W3C//DTD SVG 20010904//EN" "http://www.w3.org/TR/2001/REC-SVG-20010904/DTD/svg10.dtd">
<svg version="1.0" xmlns="http://www.w3.org/2000/svg" width="96px" height="96px" viewBox="0 0 960 960" preserveAspectRatio="xMidYMid meet">
<g id="layer101" fill="#5e4fff" stroke="none">
<path d="M300 855 c0 -8 8 -15 18 -15 20 0 52 -29 52 -47 0 -6 -9 -13 -20 -16 -14 -3 -20 -14 -20 -31 0 -22 -5 -26 -27 -26 -68 -1 -166 -77 -198 -152 -9 -24 -15 -68 -15 -122 l0 -85 195 -3 c130 -2 198 -7 206 -15 6 -6 14 -32 16 -56 5 -44 4 -46 -23 -49 -29 -3 -29 -4 -32 -75 l-3 -73 117 0 116 0 34 34 c25 25 34 43 34 68 0 30 5 36 58 63 53 28 57 33 57 65 0 31 -3 35 -27 38 -21 3 -27 9 -30 30 -2 21 -9 28 -30 30 -27 3 -28 6 -28 60 0 34 -8 74 -19 97 -24 53 -99 121 -150 136 -33 10 -41 17 -41 37 0 15 -7 26 -20 29 -11 3 -20 11 -20 18 0 17 33 45 53 45 9 0 17 7 17 15 0 13 -22 15 -135 15 -113 0 -135 -2 -135 -15z m160 -61 c0 -8 -10 -14 -25 -14 -27 0 -33 18 -13 38 14 14 38 -2 38 -24z m-50 -59 c11 -13 8 -15 -20 -15 -28 0 -31 2 -20 15 7 8 16 15 20 15 4 0 13 -7 20 -15z m90 0 c11 -13 8 -15 -20 -15 -28 0 -31 2 -20 15 7 8 16 15 20 15 4 0 13 -7 20 -15z m81 -70 c47 -24 87 -63 112 -110 19 -36 21 -56 22 -207 0 -162 -1 -167 -24 -192 -34 -36 -88 -36 -122 0 -22 23 -24 35 -27 142 -3 88 -8 121 -20 135 -13 15 -37 17 -207 17 l-192 0 7 43 c15 95 83 167 180 188 61 14 232 3 271 -16z m-89 -262 c10 -10 -26 -13 -180 -13 -167 0 -192 2 -192 16 0 13 22 15 180 12 126 -2 183 -7 192 -15z m278 -28 c10 -12 10 -15 -4 -15 -9 0 -16 7 -16 15 0 8 2 15 4 15 2 0 9 -7 16 -15z m55 -55 c3 -5 -12 -18 -35 -30 l-40 -20 0 30 c0 28 3 30 34 30 19 0 37 -4 41 -10z m-315 -125 c0 -8 -7 -15 -16 -15 -14 0 -14 3 -4 15 7 8 14 15 16 15 2 0 4 -7 4 -15z m20 -60 c11 -13 8 -15 -20 -15 -28 0 -31 2 -20 15 7 8 16 15 20 15 4 0 13 -7 20 -15z"/>
<path d="M120 315 c0 -13 25 -15 165 -15 140 0 165 2 165 15 0 13 -25 15 -165 15 -140 0 -165 -2 -165 -15z"/>
</g>
<g id="layer102" fill="#b728ff" stroke="none">
<path d="M300 855 c0 -8 8 -15 18 -15 20 0 52 -29 52 -47 0 -6 -9 -13 -20 -16 -13 -3 -20 -14 -20 -30 0 -19 -6 -27 -22 -30 -13 -2 34 -5 105 -6 l127 -1 0 31 c0 22 -5 32 -20 36 -11 3 -20 11 -20 18 0 17 33 45 53 45 9 0 17 7 17 15 0 13 -22 15 -135 15 -113 0 -135 -2 -135 -15z m160 -61 c0 -8 -10 -14 -25 -14 -27 0 -33 18 -13 38 14 14 38 -2 38 -24z m-50 -59 c11 -13 8 -15 -20 -15 -28 0 -31 2 -20 15 7 8 16 15 20 15 4 0 13 -7 20 -15z m90 0 c11 -13 8 -15 -20 -15 -28 0 -31 2 -20 15 7 8 16 15 20 15 4 0 13 -7 20 -15z"/>
</g>
<g id="layer103" fill="#9ebbff" stroke="none">
<path d="M262 623 c-13 -5 -42 -55 -42 -73 0 -6 69 -10 205 -10 200 0 205 1 205 20 0 12 -11 32 -25 45 -24 24 -27 25 -177 24 -84 0 -159 -3 -166 -6z"/>
<path d="M596 304 c-31 -30 -9 -84 34 -84 24 0 50 26 50 50 0 24 -26 50 -50 50 -10 0 -26 -7 -34 -16z"/>
</g>
<g id="layer104" fill="#ccb1ff" stroke="none">
<path d="M263 623 c-42 -16 7 -23 170 -23 162 1 180 2 163 15 -16 12 -53 15 -170 14 -83 0 -157 -3 -163 -6z"/>
<path d="M603 313 c-27 -10 -11 -23 27 -23 40 0 53 13 24 24 -18 7 -33 7 -51 -1z"/>
</g>


</svg>